<svg xmlns="http://www.w3.org/2000/svg" width="20" height="20" viewBox="0 0 20 20"><defs><style>.a{fill:none;}.b{fill:#fff;}</style></defs><rect class="a" width="20" height="20"/><path class="b" d="M14.818,7H12.636V4H2.455A1.482,1.482,0,0,0,1,5.5v8.25H2.455A2.214,2.214,0,0,0,4.636,16a2.214,2.214,0,0,0,2.182-2.25h4.364a2.183,2.183,0,1,0,4.364,0H17V10Zm-.364,1.125L15.88,10H12.636V8.125ZM4.636,14.5a.75.75,0,1,1,.727-.75A.741.741,0,0,1,4.636,14.5Zm1.615-2.25a2.113,2.113,0,0,0-3.229,0H2.455V5.5h8.727v6.75Zm7.113,2.25a.75.75,0,1,1,.727-.75A.741.741,0,0,1,13.364,14.5Z" transform="translate(1 1)"/></svg>