<svg xmlns="http://www.w3.org/2000/svg" width="20" height="20" viewBox="0 0 20 20"><defs><style>.a{fill:none;}.b{fill:#fff;}</style></defs><rect class="a" width="20" height="20"/><path class="b" d="M15.655,12.557l-1.98-.226a1.551,1.551,0,0,0-1.278.444l-1.434,1.434A11.726,11.726,0,0,1,5.827,9.073L7.269,7.632a1.551,1.551,0,0,0,.444-1.278L7.487,4.389A1.56,1.56,0,0,0,5.936,3.01H4.588A1.547,1.547,0,0,0,3.029,4.623,13.242,13.242,0,0,0,15.413,17.007a1.547,1.547,0,0,0,1.613-1.559V14.1A1.545,1.545,0,0,0,15.655,12.557Z" transform="translate(-0.026 -0.01)"/></svg>